#!OML:ASF H:\ManfredObstacles\Project 1\Capture day 2\Session 1\male.ASF
:FULLY-SPECIFIED
:DEGREES
214
root 2.43213 16.6582 -17.6965 -160.926 -2.35883 177.726
lowerback 3.21206 -5.68022 -7.16359
upperback 2.60791 -7.88135 0.440991
thorax 1.9346 -4.13734 4.47222
lowerneck -33.8311 3.39574 4.73928
upperneck 36.7338 3.98155 -0.201838
head 20.2622 2.57677 0.296283
rclavicle 7.23576e-014 1.03368e-014
rhumerus -67.0312 6.7419 -76.7717
rradius 80.4629
rwrist 6.8729
rhand -10.988 -5.51084
rfingers 7.12502
rthumb 15.0321 325.055
lclavicle 7.23576e-014 1.03368e-014
lhumerus -21.5075 -40.4608 84.531
lradius 98.1542
lwrist -21.7595
lhand -18.7212 7.29626
lfingers 7.12502
lthumb 7.57427 37.1406
rfemur -56.284 -1.81487 22.6904
rtibia 55.2335
rfoot -0.681392 -12.3569
rtoes -21.4387
lfemur -4.18025 -3.35142 -22.6476
ltibia 23.9151
lfoot 31.0524 8.31804
ltoes -0.362892
215
root 2.4333 16.6779 -17.9414 -160.662 -2.45029 177.848
lowerback 2.9591 -5.96896 -6.81016
upperback 2.5538 -8.23102 0.631788
thorax 2.04365 -4.30472 4.44165
lowerneck -33.7278 3.67135 4.93451
upperneck 36.5441 4.43419 -0.583553
head 20.1546 2.70115 0.182685
rclavicle -1.07344e-014 1.82882e-014
rhumerus -68.2725 7.1161 -76.3319
rradius 81.6811
rwrist 6.38132
rhand -10.8773 -5.23526
rfingers 7.12502
rthumb 15.1387 325.338
lclavicle -1.07344e-014 1.82882e-014
lhumerus -22.3485 -40.3142 84.8111
lradius 98.6622
lwrist -21.6454
lhand -18.527 7.28097
lfingers 7.12502
lthumb 7.76174 37.1185
rfemur -55.7349 -1.4152 22.5328
rtibia 52.5056
rfoot -0.287543 -11.8933
rtoes -21.5909
lfemur -3.65297 -3.35831 -22.3883
ltibia 23.4687
lfoot 32.4525 7.88104
ltoes 1.60594
216
root 2.43524 16.6889 -18.1895 -160.407 -2.53411 177.947
lowerback 2.62983 -6.24258 -6.44786
upperback 2.5138 -8.55858 0.792608
thorax 2.1991 -4.46247 4.36362
lowerneck -33.6326 3.94446 5.15676
upperneck 36.3591 4.87329 -0.978057
head 20.0588 2.82385 0.0563271
rclavicle 5.60573e-014 -7.15625e-015
rhumerus -69.4701 7.45084 -75.9581
rradius 82.8809
rwrist 5.89777
rhand -10.7925 -4.94156
rfingers 7.12502
rthumb 15.2204 325.638
lclavicle 5.60573e-014 -7.15625e-015
lhumerus -23.2091 -40.171 85.0939
lradius 99.101
lwrist -21.5643
lhand -18.2756 7.13911
lfingers 7.12502
lthumb 8.00432 36.9675
rfemur -55.1309 -0.989172 22.3093
rtibia 49.9889
rfoot 0.1503 -11.5542
rtoes -21.7563
lfemur -3.1492 -3.31313 -22.1484
ltibia 23.1364
lfoot 33.7201 7.5122
ltoes 3.6558
217
root 2.43829 16.69 -18.4407 -160.177 -2.58972 178.001
lowerback 2.25162 -6.49427 -6.10645
upperback 2.47645 -8.85797 0.913104
thorax 2.37555 -4.60651 4.24771
lowerneck -33.5173 4.20233 5.378
upperneck 36.1997 5.29098 -1.35333
head 19.9773 2.9449 -0.0639573
rclavicle -2.70347e-014 2.70347e-014
rhumerus -70.6348 7.74787 -75.6602
rradius 84.0489
rwrist 5.44506
rhand -10.7424 -4.64532
rfingers 7.12502
rthumb 15.2687 325.938
lclavicle -2.70347e-014 2.70347e-014
lhumerus -24.1025 -40.037 85.3908
lradius 99.4593
lwrist -21.5409
lhand -18.0049 6.90784
lfingers 7.12502
lthumb 8.26558 36.7261
rfemur -54.4704 -0.542973 22.007
rtibia 47.7472
rfoot 0.640769 -11.3687
rtoes -21.9167
lfemur -2.6554 -3.18999 -21.9554
ltibia 22.923
lfoot 34.8606 7.18956
ltoes 5.63211
218
root 2.44312 16.681 -18.6944 -159.999 -2.60813 178.004
lowerback 1.84134 -6.71833 -5.81009
upperback 2.46437 -9.12386 0.986001
thorax 2.58912 -4.73594 4.10002
lowerneck -33.4057 4.43834 5.58681
upperneck 36.0648 5.67407 -1.69689
head 19.9127 3.05852 -0.173677
rclavicle -1.19668e-013 4.37326e-014
rhumerus -71.7244 7.99887 -75.4462
rradius 85.1595
rwrist 5.04968
rhand -10.7263 -4.34336
rfingers 7.12502
rthumb 15.2841 326.241
lclavicle -1.19668e-013 4.37326e-014
lhumerus -25.0153 -39.9106 85.6983
lradius 99.7329
lwrist -21.5865
lhand -17.7366 6.60645
lfingers 7.12502
lthumb 8.52455 36.4144
rfemur -53.7445 -0.073561 21.6272
rtibia 45.8338
rfoot 1.19861 -11.3487
rtoes -22.0611
lfemur -2.14735 -2.97458 -21.8135
ltibia 22.8303
lfoot 35.883 6.91386
ltoes 7.53197
219
root 2.4498 16.6606 -18.9501 -159.882 -2.58246 177.943
lowerback 1.43112 -6.91085 -5.58087
upperback 2.4657 -9.35204 1.01279
thorax 2.81334 -4.84786 3.9395
lowerneck -33.3024 4.65716 5.79637
upperneck 35.9537 6.02984 -2.02794
head 19.8666 3.16588 -0.282882
rclavicle 2.42517e-014 -4.21423e-014
rhumerus -72.7394 8.19467 -75.2934
rradius 86.2263
rwrist 4.72918
rhand -10.7222 -4.05239
rfingers 7.12502
rthumb 15.2881 326.533
lclavicle 2.42517e-014 -4.21423e-014
lhumerus -25.977 -39.7778 86.0623
lradius 99.9225
lwrist -21.6881
lhand -17.4654 6.24437
lfingers 7.12502
lthumb 8.78622 36.0415
rfemur -52.9537 0.393588 21.1853
rtibia 44.2886
rfoot 1.85944 -11.4649
rtoes -22.175
lfemur -1.61464 -2.68454 -21.7408
ltibia 22.8679
lfoot 36.7756 6.67914
ltoes 9.3599
220
root 2.45835 16.628 -19.2072 -159.847 -2.50739 177.816
lowerback 1.05404 -7.06767 -5.43232
upperback 2.47997 -9.53768 0.99143
thorax 3.03128 -4.93996 3.77655
lowerneck -33.196 4.84343 5.97946
upperneck 35.8906 6.34684 -2.321
head 19.8464 3.26417 -0.377291
rclavicle 2.38542e-014 9.54166e-015
rhumerus -73.6839 8.33479 -75.2086
rradius 87.2417
rwrist 4.49134
rhand -10.7383 -3.76912
rfingers 7.12502
rthumb 15.2725 326.815
lclavicle 2.38542e-014 9.54166e-015
lhumerus -26.9962 -39.6372 86.4887
lradius 100.024
lwrist -21.8379
lhand -17.2295 5.8471
lfingers 7.12502
lthumb 9.01387 35.6345
rfemur -52.082 0.820509 20.7154
rtibia 43.1286
rfoot 2.62783 -11.6483
rtoes -22.3282
lfemur -1.04281 -2.32322 -21.7404
ltibia 23.0571
lfoot 37.5263 6.4992
ltoes 11.1739
221
root 2.4686 16.5822 -19.4648 -159.891 -2.38613 177.616
lowerback 0.728986 -7.19485 -5.38134
upperback 2.49836 -9.68825 0.931525
thorax 3.22935 -5.01626 3.63341
lowerneck -33.1193 5.00427 6.14434
upperneck 35.8835 6.63419 -2.58967
head 19.8661 3.35465 -0.462349
rclavicle 7.23576e-014 -2.06736e-014
rhumerus -74.5457 8.44698 -75.1866
rradius 88.2168
rwrist 4.31209
rhand -10.7631 -3.51205
rfingers 7.12502
rthumb 15.2487 327.07
lclavicle 7.23576e-014 -2.06736e-014
lhumerus -28.1052 -39.4484 87.0174
lradius 100.054
lwrist -21.9972
lhand -17.0115 5.4252
lfingers 7.12502
lthumb 9.22423 35.2034
rfemur -51.1389 1.16475 20.248
rtibia 42.357
rfoot 3.50168 -11.8625
rtoes -22.4752
lfemur -0.454761 -1.92588 -21.8202
ltibia 23.4431
lfoot 38.0931 6.35129
ltoes 12.8622
222
root 2.48018 16.5229 -19.7223 -160.004 -2.2276 177.353
lowerback 0.460074 -7.28813 -5.40816
upperback 2.50466 -9.79642 0.838244
thorax 3.38571 -5.07186 3.50789
lowerneck -33.0199 5.13035 6.27579
upperneck 35.8883 6.8815 -2.82835
head 19.883 3.43225 -0.537459
rclavicle -3.26007e-014 -1.82882e-014
rhumerus -75.343 8.52524 -75.2224
rradius 89.1459
rwrist 4.18242
rhand -10.8076 -3.27484
rfingers 7.12502
rthumb 15.2058 327.304
lclavicle -3.26007e-014 -1.82882e-014
lhumerus -29.3239 -39.2119 87.6675
lradius 100.021
lwrist -22.1608
lhand -16.7886 4.98718
lfingers 7.12502
lthumb 9.43934 34.7558
rfemur -50.1431 1.36601 19.8378
rtibia 41.9611
rfoot 4.28433 -12.0385
rtoes -22.5769
lfemur 0.110569 -1.52145 -21.9679
ltibia 24.0738
lfoot 38.4367 6.23819
ltoes 14.3253
223
root 2.49245 16.4491 -19.9779 -160.172 -2.04717 177.044
lowerback 0.239717 -7.35247 -5.49856
upperback 2.50484 -9.86818 0.726624
thorax 3.51215 -5.11034 3.40632
lowerneck -32.9259 5.22516 6.36524
upperneck 35.9009 7.09225 -3.03489
head 19.9005 3.49593 -0.599034
rclavicle -7.79236e-014 1.35174e-014
rhumerus -76.0475 8.58183 -75.3191
rradius 90.0262
rwrist 4.08599
rhand -10.8999 -3.06022
rfingers 7.12502
rthumb 15.1169 327.512
lclavicle -7.79236e-014 1.35174e-014
lhumerus -30.6197 -38.9154 88.4157
lradius 99.929
lwrist -22.3251
lhand -16.59 4.57339
lfingers 7.12502
lthumb 9.63096 34.3332
rfemur -49.0929 1.37454 19.5317
rtibia 41.9188
rfoot 4.58844 -12.072
rtoes -22.6732
lfemur 0.606928 -1.13876 -22.1646
ltibia 25.0006
lfoot 38.5263 6.15007
ltoes 15.368
224
root 2.50486 16.3611 -20.2311 -160.384 -1.85056 176.707
lowerback 0.0701592 -7.38867 -5.62861
upperback 2.49615 -9.90472 0.605459
thorax 3.6023 -5.13166 3.32592
lowerneck -32.8489 5.29778 6.41888
upperneck 35.9129 7.27952 -3.22382
head 19.9181 3.5483 -0.651839
rclavicle 3.85642e-014 3.10104e-014
rhumerus -76.6408 8.6265 -75.4766
rradius 90.8624
rwrist 4.00049
rhand -11.0358 -2.87063
rfingers 7.12502
rthumb 14.986 327.692
lclavicle 3.85642e-014 3.10104e-014
lhumerus -31.9945 -38.5521 89.2641
lradius 99.7862
lwrist -22.4664
lhand -16.4154 4.205
lfingers 7.12502
lthumb 9.79943 33.957
rfemur -47.9943 1.21168 19.327
rtibia 42.1964
rfoot 4.17209 -12.023
rtoes -22.5621
lfemur 1.00357 -0.777796 -22.3919
ltibia 26.2524
lfoot 38.3607 6.05571
ltoes 15.9251
225
root 2.51628 16.2606 -20.4804 -160.626 -1.65602 176.385
lowerback -0.0405749 -7.39711 -5.74574
upperback 2.47059 -9.90729 0.491533
thorax 3.63737 -5.13446 3.25831
lowerneck -32.7737 5.34608 6.42917
upperneck 35.9163 7.44214 -3.38976
head 19.9257 3.58894 -0.692646
rclavicle -1.08536e-013 -1.66979e-014
rhumerus -77.1187 8.66044 -75.6955
rradius 91.6567
rwrist 3.93722
rhand -11.2134 -2.75537
rfingers 7.12502
rthumb 14.8149 327.794
lclavicle -1.08536e-013 -1.66979e-014
lhumerus -33.4397 -38.1135 90.2089
lradius 99.5921
lwrist -22.6146
lhand -16.2524 3.9047
lfingers 7.12502
lthumb 9.95667 33.6492
rfemur -46.8652 0.891917 19.2412
rtibia 42.7427
rfoot 2.86572 -11.9453
rtoes -22.2734
lfemur 1.27402 -0.450711 -22.6078
ltibia 27.8438
lfoot 37.9934 6.02059
ltoes 16.076
226
root 2.526 16.1511 -20.7256 -160.897 -1.47026 176.103
lowerback -0.0831674 -7.38322 -5.82266
upperback 2.43735 -9.88469 0.393888
thorax 3.6196 -5.12284 3.19845
lowerneck -32.7011 5.39029 6.4294
upperneck 35.8748 7.59797 -3.56754
head 19.9069 3.62222 -0.74004
rclavicle -1.89243e-013 1.98785e-014
rhumerus -77.455 8.70136 -75.9931
rradius 92.4055
rwrist 3.86968
rhand -11.4559 -2.71795
rfingers 7.12502
rthumb 14.5813 327.815
lclavicle -1.89243e-013 1.98785e-014
lhumerus -34.9259 -37.5856 91.2121
lradius 99.3416
lwrist -22.7809
lhand -16.1438 3.69462
lfingers 7.12502
lthumb 10.0615 33.4341
rfemur -45.7194 0.477343 19.2578
rtibia 43.4929
rfoot 0.759966 -11.9565
rtoes -21.7632
lfemur 1.41107 -0.146456 -22.7827
ltibia 29.7551
lfoot 37.4872 6.09705
ltoes 15.8944
